<?xml version="1.0" encoding="UTF-8" standalone="no"?>
<!-- Created with Inkscape (http://www.inkscape.org/) -->

<svg
   version="1.1"
   id="svg2"
   width="1546.6667"
   height="1029.3333"
   viewBox="0 0 1546.6667 1029.3333"
   sodipodi:docname="2945066_28518.eps"
   xmlns:inkscape="http://www.inkscape.org/namespaces/inkscape"
   xmlns:sodipodi="http://sodipodi.sourceforge.net/DTD/sodipodi-0.dtd"
   xmlns="http://www.w3.org/2000/svg"
   xmlns:svg="http://www.w3.org/2000/svg">
  <defs
     id="defs6">
    <clipPath
       clipPathUnits="userSpaceOnUse"
       id="clipPath20">
      <path
         d="m 3753.78,1055.93 c -1815.48,0 -3287.206,1471.73 -3287.206,3287.21 0,1815.47 1471.726,3287.2 3287.206,3287.2 1138.21,0 2141.34,-578.53 2731.35,-1457.54 H 4354.76 c -118.04,0 -213.72,-95.69 -213.72,-213.72 V 1579.63 c 0,-1.62 0.02,-3.22 0.05,-4.82 l -0.05,-19.27 c 12.9,-99.7 75.5,-151.74 132.38,-173.61 25.08,-10.33 52.54,-16.02 81.34,-16.02 H 5149.1 C 4725.56,1167.07 4252.63,1055.93 3753.78,1055.93"
         id="path18" />
    </clipPath>
    <radialGradient
       fx="0"
       fy="0"
       cx="0"
       cy="0"
       r="1"
       gradientUnits="userSpaceOnUse"
       gradientTransform="matrix(3287.2,0,0,-3287.2,3753.78,4343.13)"
       spreadMethod="pad"
       id="radialGradient26">
      <stop
         style="stop-opacity:1;stop-color:#b8c8d2"
         offset="0"
         id="stop22" />
      <stop
         style="stop-opacity:1;stop-color:#9cb3c1"
         offset="1"
         id="stop24" />
    </radialGradient>
    <clipPath
       clipPathUnits="userSpaceOnUse"
       id="clipPath40">
      <path
         d="m 4273.42,1381.93 c -56.88,21.87 -119.48,73.91 -132.38,173.61 l 0.05,19.27 c 1.93,-87.16 56.04,-161.46 132.33,-192.88"
         id="path38" />
    </clipPath>
    <radialGradient
       fx="0"
       fy="0"
       cx="0"
       cy="0"
       r="1"
       gradientUnits="userSpaceOnUse"
       gradientTransform="matrix(3287.2,0,0,-3287.2,3753.78,4343.13)"
       spreadMethod="pad"
       id="radialGradient46">
      <stop
         style="stop-opacity:1;stop-color:#b1c0ca"
         offset="0"
         id="stop42" />
      <stop
         style="stop-opacity:1;stop-color:#96acb9"
         offset="1"
         id="stop44" />
    </radialGradient>
  </defs>
  <sodipodi:namedview
     id="namedview4"
     pagecolor="#ffffff"
     bordercolor="#000000"
     borderopacity="0.25"
     inkscape:showpageshadow="2"
     inkscape:pageopacity="0.0"
     inkscape:pagecheckerboard="0"
     inkscape:deskcolor="#d1d1d1" />
  <g
     id="g8"
     inkscape:groupmode="layer"
     inkscape:label="ink_ext_XXXXXX"
     transform="matrix(1.3333333,0,0,-1.3333333,0,1029.3333)">
    <g
       id="g10"
       transform="scale(0.1)">
      <path
         d="M -0.00390625,0 H 11599.996 V 7720 H -0.00390625 Z"
         style="fill:#9cb3c1;fill-opacity:1;fill-rule:nonzero;stroke:none"
         id="path12" />
      <g
         id="g14">
        <g
           id="g16"
           clip-path="url(#clipPath20)">
          <path
             d="m 3753.78,1055.93 c -1815.48,0 -3287.206,1471.73 -3287.206,3287.21 0,1815.47 1471.726,3287.2 3287.206,3287.2 1138.21,0 2141.34,-578.53 2731.35,-1457.54 H 4354.76 c -118.04,0 -213.72,-95.69 -213.72,-213.72 V 1579.63 c 0,-1.62 0.02,-3.22 0.05,-4.82 l -0.05,-19.27 c 12.9,-99.7 75.5,-151.74 132.38,-173.61 25.08,-10.33 52.54,-16.02 81.34,-16.02 H 5149.1 C 4725.56,1167.07 4252.63,1055.93 3753.78,1055.93"
             style="fill:url(#radialGradient26);fill-opacity:1;fill-rule:nonzero;stroke:none"
             id="path28" />
        </g>
      </g>
      <path
         d="M 7446.8,1365.91 H 4354.76 c -118.04,0 -213.72,95.68 -213.72,213.72 v 4379.45 c 0,118.03 95.68,213.72 213.72,213.72 H 7446.8 c 118.03,0 213.72,-95.69 213.72,-213.72 V 1579.63 c 0,-118.04 -95.69,-213.72 -213.72,-213.72"
         style="fill:#527275;fill-opacity:1;fill-rule:nonzero;stroke:none"
         id="path30" />
      <path
         d="M 7373.79,1616.29 H 4427.76 c -31.06,0 -56.24,25.18 -56.24,56.24 v 4064.82 c 0,31.06 25.18,56.24 56.24,56.24 h 2946.03 c 31.06,0 56.24,-25.18 56.24,-56.24 V 1672.53 c 0,-31.06 -25.18,-56.24 -56.24,-56.24"
         style="fill:#ffffff;fill-opacity:1;fill-rule:nonzero;stroke:none"
         id="path32" />
      <g
         id="g34">
        <g
           id="g36"
           clip-path="url(#clipPath40)">
          <path
             d="m 4273.42,1381.93 c -56.88,21.87 -119.48,73.91 -132.38,173.61 l 0.05,19.27 c 1.93,-87.16 56.04,-161.46 132.33,-192.88"
             style="fill:url(#radialGradient46);fill-opacity:1;fill-rule:nonzero;stroke:none"
             id="path48" />
        </g>
      </g>
      <path
         d="m 4336.87,1369.04 c -17.6,0 -40.04,3.89 -63.45,12.89 -76.29,31.42 -130.4,105.72 -132.33,192.88 l 12.1,4377.35 218.33,-299.56 V 1672.53 c 0,-31.06 25.18,-56.24 56.24,-56.24 h 2885.65 l 176.74,-242.49 -3135.39,-3.12 c -5.11,-1.07 -11.15,-1.64 -17.89,-1.64"
         style="fill:#4f6e70;fill-opacity:1;fill-rule:nonzero;stroke:none"
         id="path50" />
      <path
         d="M 7313.41,1616.29 H 4427.76 c -31.06,0 -56.24,25.18 -56.24,56.24 V 5652.6 l 409.71,-562.12 h -226.56 v -717.76 h 717.77 v 43.82 L 7313.41,1616.29 m -2758.74,1306.5 v -717.76 h 717.77 v 519.09 l 255.82,214.74 -88.17,23.95 -167.65,-123.28 v 83.26 h -717.77 m 0,1083.85 v -717.76 h 717.77 v 433.8 l 255.82,214.75 -88.17,23.95 -167.65,-123.29 v 168.55 H 4554.67 M 5246.7,2230.76 h -666.3 v 666.29 h 666.3 v -76.45 l -318.59,-234.27 -137.72,139.83 -131.63,-88.06 263.7,-207.76 324.24,272.17 v -471.75 m 0,1083.86 h -666.3 v 666.28 h 666.3 v -161.73 l -318.59,-234.27 -137.72,139.82 -131.63,-88.05 263.7,-207.77 324.24,272.18 v -386.46 m 0,1083.84 h -666.3 v 666.29 h 219.59 l 151.1,-207.32 -75.28,-55.35 -137.72,139.82 -131.63,-88.06 263.69,-207.76 145.79,122.38 230.76,-316.61 v -53.39"
         style="fill:#f5f5f5;fill-opacity:1;fill-rule:nonzero;stroke:none"
         id="path52" />
      <path
         d="m 5883.13,702.109 c -1098.51,0 -1989.03,94.981 -1989.03,212.141 0,117.17 890.52,212.15 1989.03,212.15 1098.51,0 1989.02,-94.98 1989.02,-212.15 0,-117.16 -890.51,-212.141 -1989.02,-212.141"
         style="fill:#899daa;fill-opacity:1;fill-rule:nonzero;stroke:none"
         id="path54" />
      <path
         d="m 4580.4,4398.46 h 666.3 v 666.29 h -666.3 v -666.29 m 692.04,-25.74 h -717.77 v 717.76 h 717.77 v -717.76"
         style="fill:#153e49;fill-opacity:1;fill-rule:nonzero;stroke:none"
         id="path56" />
      <path
         d="m 4580.4,3314.62 h 666.3 v 666.28 h -666.3 v -666.28 m 692.04,-25.74 h -717.77 v 717.76 h 717.77 v -717.76"
         style="fill:#153e49;fill-opacity:1;fill-rule:nonzero;stroke:none"
         id="path58" />
      <path
         d="m 4580.4,2230.76 h 666.3 v 666.29 h -666.3 v -666.29 m 692.04,-25.73 h -717.77 v 717.76 h 717.77 v -717.76"
         style="fill:#153e49;fill-opacity:1;fill-rule:nonzero;stroke:none"
         id="path60" />
      <path
         d="M 7132.8,4957.86 H 5654.33 v 73.62 H 7132.8 v -73.62"
         style="fill:#e6e6e6;fill-opacity:1;fill-rule:nonzero;stroke:none"
         id="path62" />
      <path
         d="M 7132.8,4731.6 H 5654.33 v 73.62 H 7132.8 v -73.62"
         style="fill:#e6e6e6;fill-opacity:1;fill-rule:nonzero;stroke:none"
         id="path64" />
      <path
         d="M 7132.8,4505.35 H 5654.33 v 73.61 H 7132.8 v -73.61"
         style="fill:#e6e6e6;fill-opacity:1;fill-rule:nonzero;stroke:none"
         id="path66" />
      <path
         d="M 7132.8,3850.05 H 5654.33 v 73.62 H 7132.8 v -73.62"
         style="fill:#e6e6e6;fill-opacity:1;fill-rule:nonzero;stroke:none"
         id="path68" />
      <path
         d="M 7132.8,3623.79 H 5654.33 v 73.62 H 7132.8 v -73.62"
         style="fill:#e6e6e6;fill-opacity:1;fill-rule:nonzero;stroke:none"
         id="path70" />
      <path
         d="M 7132.8,3397.53 H 5654.33 v 73.62 H 7132.8 v -73.62"
         style="fill:#e6e6e6;fill-opacity:1;fill-rule:nonzero;stroke:none"
         id="path72" />
      <path
         d="M 7132.8,2809.24 H 5654.33 v 73.62 H 7132.8 v -73.62"
         style="fill:#e6e6e6;fill-opacity:1;fill-rule:nonzero;stroke:none"
         id="path74" />
      <path
         d="M 7132.8,2582.98 H 5654.33 v 73.62 H 7132.8 v -73.62"
         style="fill:#e6e6e6;fill-opacity:1;fill-rule:nonzero;stroke:none"
         id="path76" />
      <path
         d="M 7132.8,2356.72 H 5654.33 v 73.62 H 7132.8 v -73.62"
         style="fill:#e6e6e6;fill-opacity:1;fill-rule:nonzero;stroke:none"
         id="path78" />
      <path
         d="m 5015.94,4768.46 -64.85,88.97 281.93,207.32 h 13.68 v -102.59 l -230.76,-193.7 m 256.5,215.31 v 106.71 h -4.42 l 119.77,88.08 88.17,-23.95 -203.52,-170.84"
         style="fill:#c7c7c7;fill-opacity:1;fill-rule:nonzero;stroke:none"
         id="path80" />
      <path
         d="m 4870.15,4646.08 -263.69,207.76 131.63,88.06 137.72,-139.82 75.28,55.35 64.85,-88.97 -145.79,-122.38"
         style="fill:#bfbfbf;fill-opacity:1;fill-rule:nonzero;stroke:none"
         id="path82" />
      <path
         d="m 5246.7,4962.16 v 102.59 h -13.68 l 35,25.73 h 4.42 v -106.71 l -25.74,-21.61"
         style="fill:#103039;fill-opacity:1;fill-rule:nonzero;stroke:none"
         id="path84" />
      <path
         d="m 4633.25,4886.97 92.67,61.98 138.29,-140.4 518.54,381.31 38.98,-10.6 -561.37,-471.23 -227.11,178.94"
         style="fill:#8cad81;fill-opacity:1;fill-rule:nonzero;stroke:none"
         id="path86" />
      <path
         d="m 4646.17,4886.46 214.04,-168.63 545.51,457.91 -21.42,5.82 -520.89,-383.03 -138.49,140.6 z m 214.34,-188.22 -240.17,189.23 106.58,71.29 138.09,-140.19 516.2,379.58 56.54,-15.36 -577.24,-484.55"
         style="fill:#8cad81;fill-opacity:1;fill-rule:nonzero;stroke:none"
         id="path88" />
      <path
         d="m 4922.46,3428.9 -263.7,207.77 131.63,88.05 137.72,-139.82 318.59,234.27 V 3701.08 L 4922.46,3428.9 m 349.98,293.78 v 115.41 l 167.65,123.29 88.17,-23.95 -255.82,-214.75"
         style="fill:#bfbfbf;fill-opacity:1;fill-rule:nonzero;stroke:none"
         id="path90" />
      <path
         d="m 5246.7,3701.08 v 118.09 l 25.74,18.92 v -115.41 l -25.74,-21.6"
         style="fill:#103039;fill-opacity:1;fill-rule:nonzero;stroke:none"
         id="path92" />
      <path
         d="m 4685.56,3669.79 92.66,61.98 138.29,-140.4 518.55,381.31 38.98,-10.6 -561.37,-471.23 -227.11,178.94"
         style="fill:#8cad81;fill-opacity:1;fill-rule:nonzero;stroke:none"
         id="path94" />
      <path
         d="m 4698.48,3669.28 214.03,-168.63 545.51,457.91 -21.42,5.82 -520.89,-383.03 -138.49,140.6 z m 214.33,-188.22 -240.17,189.23 106.58,71.29 138.09,-140.19 516.2,379.58 56.55,-15.36 -577.25,-484.55"
         style="fill:#8cad81;fill-opacity:1;fill-rule:nonzero;stroke:none"
         id="path96" />
      <path
         d="m 4922.46,2430.34 -263.7,207.76 131.63,88.06 137.72,-139.83 318.59,234.27 v -118.09 l -324.24,-272.17 m 349.98,293.78 v 115.41 l 167.65,123.28 88.17,-23.95 -255.82,-214.74"
         style="fill:#bfbfbf;fill-opacity:1;fill-rule:nonzero;stroke:none"
         id="path98" />
      <path
         d="m 5246.7,2702.51 v 118.09 l 25.74,18.93 v -115.41 l -25.74,-21.61"
         style="fill:#103039;fill-opacity:1;fill-rule:nonzero;stroke:none"
         id="path100" />
      <path
         d="m 4685.56,2671.22 92.66,61.98 138.29,-140.4 518.55,381.31 38.98,-10.59 -561.37,-471.23 -227.11,178.93"
         style="fill:#8cad81;fill-opacity:1;fill-rule:nonzero;stroke:none"
         id="path102" />
      <path
         d="m 4698.48,2670.72 214.03,-168.64 545.51,457.92 -21.42,5.82 -520.89,-383.04 -138.49,140.61 z m 214.33,-188.22 -240.17,189.22 106.58,71.3 138.09,-140.2 516.2,379.59 56.55,-15.37 -577.25,-484.54"
         style="fill:#8cad81;fill-opacity:1;fill-rule:nonzero;stroke:none"
         id="path104" />
      <path
         d="m 5931.92,6341.25 c -76.23,0 -138.03,61.8 -138.03,138.04 0,76.23 61.8,138.03 138.03,138.03 76.23,0 138.04,-61.8 138.04,-138.03 0,-76.24 -61.81,-138.04 -138.04,-138.04 z m 940.26,-49.07 h -523.09 v 74.72 c 0,228.09 -184.91,412.99 -413,412.99 h -8.34 c -228.09,0 -412.99,-184.9 -412.99,-412.99 v -74.72 h -523.09 c -27.05,0 -48.98,-21.93 -48.98,-48.98 v -527.79 c 0,-27.05 21.93,-48.98 48.98,-48.98 h 1880.51 c 27.05,0 48.97,21.93 48.97,48.98 v 527.79 c 0,27.05 -21.92,48.98 -48.97,48.98"
         style="fill:#f7d77f;fill-opacity:1;fill-rule:nonzero;stroke:none"
         id="path106" />
      <path
         d="M 6921.15,5752.18 H 4942.69 V 5835 h 1978.46 v -82.82"
         style="fill:#e5c573;fill-opacity:1;fill-rule:nonzero;stroke:none"
         id="path108" />
      <path
         d="M 6912.11,5694.17 H 4953.64 c -6.05,0 -10.95,4.9 -10.95,10.94 v 25.47 h 1978.46 v -27.37 c 0,-5 -4.05,-9.04 -9.04,-9.04"
         style="fill:#e5c573;fill-opacity:1;fill-rule:nonzero;stroke:none"
         id="path110" />
    </g>
  </g>
</svg>
